<svg xmlns="http://www.w3.org/2000/svg" viewBox="0 695.2 1992 592" version="1.1" style="max-height: 500px" width="1992" height="592">
<path d="m0 0h2e3v2e3h-2e3z" transform="translate(0)"/>
<path fill="#FDFDFD" d="m0 0h30l10 1 1 1 1 214v259l-1 98-11 1h-155l-36-1-9-15-25-25-9-11-11-13-9-15-8-19-7-24-6-29-4-50-2-11-11 2-16 3-18 1-26-3-27-7-19-7-21-10-18-11-23-16-19-11-25-11-15-8-3-3-3-9-15-8-6-7v-9l7-17 4-22 5-16 8-21 10-16 13-18 13-16 9-11 11-12 9-10 7-7 9-11 13-15 17-17 3-10 6-12 7-7 12-5 6-1 18-1h13l20 2 16 4 25 10h18l6 4 6 8h7l5 5 3 7 1 7v30l-2 12-9 10-6 5-10 4h-12l-12-3-12-6-9-7-3-4v-7l-4-1-6-1-13-10-10-6-7 1-5 5-12 22-8 17-3 19 3 14-1 18-3 18-1 16 19-3h23l14 4 11 6 13 10 8 6 7 1 15-4 31-6 9-1h21l15 3 17 6 19 9 13 8 16 11 10 5 8 2h17l6-4 6-7 7-14 1-4-14 2-17 1-7-3-5-5-4-8-1-8 3-12 2-6-8-6v-7l2-16v-8l-8-4-2-4 1-4 12-23 3-5-1-5-4-9 1-7 9-10 5-6 4-10 3-12 9-11-1-5-4-6 1-4 4-4 11-4 16-1 12-9 15-3z" transform="translate(516,705)"/>
<path fill="#FD4009" d="m0 0h129l20 2 17 4 12 6 8 9 4 11 1 5v11l-5 10-9 8-6 3 2 2 11 4 10 7 4 5 2 6v13l-3 9-4 6-8 7-12 5-18 4-27 3h-128l-1-1v-137z" transform="translate(1201,1080)"/>
<path fill="#FD4009" d="m0 0h98l27 1 21 3 16 5 10 5 10 9 6 12 2 10v11l-2 9-6 11-5 5-12 9 11 9 6 9 5 18 2 9-1 5h-53l-2-1-9-25-6-8-8-4-4-1-14-1h-35v39l-12 1h-45l-2-1 1-138z" transform="translate(1019,740)"/>
<path fill="#FD4009" d="m0 0h69l5 5 13 15 9 11 22 26 9 11 9 10 9 11 3 3v-90l1-2h57l2 3v136l-3 1h-68l-11-13-11-14-13-15-8-10-11-13-9-11-9-10-4-6-3-1v92l-1 1h-57l-1-1v-137z" transform="translate(1066,912)"/>
<path fill="#FD4009" d="m0 0h92l32 1 21 3 15 4 12 6 9 8 5 8 4 13v15l-3 9-6 10-7 7-16 8-16 4-21 3-40 1h-24v39l-36 1h-22l-1-1 1-138z" transform="translate(612,740)"/>
<path fill="#FD4009" d="m0 0h36l21 3 15 5 14 8 8 8 7 11 4 8v4l-10 1h-49l-5-2-8-5-10-3-11 1-10 5-3 3v3l8 2 43 4 25 5 13 5 8 6 7 8 2 5v14l-5 14-7 10-10 9-14 7-13 4-17 3-23 1-23-2-16-4-15-6-11-8-8-10-7-14v-4l2-1h56l6 2 7 5 7 2h12l9-3 7-6-1-4-59-6-19-4-14-6-6-5-6-10-1-3v-15l4-11 8-12 9-8 16-8 15-4z" transform="translate(1739,909)"/>
<path fill="#FD4009" d="m0 0h39l18 3 14 4 15 8 10 10 6 9 4 9v4l-13 1h-45l-6-2-7-5-12-3-10 1-7 3-6 5-1 4 43 4 25 4 15 4 12 6 5 5 5 6 3 6v11l-6 16-7 10-7 7-14 8-15 5-19 3h-36l-14-2-17-5-15-8-5-4-8-11-7-14v-3l5-1h53l6 2 7 5 7 2h12l11-4 5-4 1-5-60-6-20-4-11-5-6-4-7-8-3-8v-14l4-11 7-10 4-5 13-9 15-6z" transform="translate(1552,909)"/>
<path fill="#FD4009" d="m0 0h159l1 1v23l-1 10-101 1-1 21h64l22 1 1 1v24l-1 1-85 1-1 21h108l2 1v33l-2 1h-166l-1-1 1-138z" transform="translate(1306,912)"/>
<path fill="#FD4009" d="m0 0h157l2 3v23l-1 8-101 1-1 21h60l26 1 1 1v24l-1 1-85 1-1 21h108l2 1v33l-2 1h-165l-2-1 1-138z" transform="translate(1419,740)"/>
<path fill="#FD4009" d="m0 0h125l33 1v33l-102 1v21h26l60 1 1 1v23l-1 2-85 1-1 21h71l38 1 1 1v32l-20 1h-146l-3-1v-136z" transform="translate(828,740)"/>
<path fill="#FD4009" d="m0 0h57l1 3v74l3 12 5 8 7 5 7 2h17l9-4 7-6 4-8 1-5 1-24v-56l1-1h57l1 1v82l-3 14-5 12-7 11-10 8-16 8-13 4-18 3-19 1-26-2-16-4-15-6-12-8-7-8-8-16-3-11-1-8v-80z" transform="translate(998,1080)"/>
<path fill="#FD4009" d="m0 0h31l17 2 17 4 13 5 11 7 10 9 7 9 7 13v4l-2 1h-61l-6-8-10-5-8-2h-19l-11 3-8 6-5 6-4 9-1 5v10l3 10 8 11 10 6 7 2h22l12-5 8-6 3-4h62l-1 4-6 14-7 9-8 8-13 8-16 6-13 3-13 2h-38l-19-3-16-5-16-8-8-6-8-9-8-16-3-9-1-6v-25l5-16 6-11 11-12 11-7 13-6 14-4z" transform="translate(1682,737)"/>
<path fill="#FD4009" d="m0 0h33l21 3 15 4 17 8 9 7 7 7 7 11 4 8 1 5-3 1h-60l-4-6-5-4-9-4-12-2-13 1-11 3-9 7-5 6-4 13v9l3 10 6 10 8 6 11 4h22l12-5 8-6 3-4h61l-1 7-7 14-11 12-10 7-16 7-19 5-13 2h-37l-19-3-16-5-16-8-10-8-8-10-5-10-4-13-1-6v-20l2-12 5-12 7-11 9-9 11-7 12-5 9-3z" transform="translate(683,1077)"/>
<path fill="#FD4009" d="m0 0h159v33l-1 1-99 1-1 7v13l71 1 14 1 1 2v22l-1 2-85 1-1 55-14 1h-44l-1-1 1-138z" transform="translate(612,912)"/>
<path fill="#FD4009" d="m0 0h127l32 1v33l-101 1-1 21h46l40 1 1 2v21l-1 3-86 1v54l-1 1-19 1h-38l-1-1 1-138z" transform="translate(1234,740)"/>
<path fill="#FD4009" d="m0 0h29l118 1v33l-1 1-48 1-5 1-1 103-17 1h-40l-2-1 1-104h-54l-1-1v-34z" transform="translate(896,911)"/>
<path fill="#FD4009" d="m0 0h148l18 1 1 1v31l-1 1-53 1v102l-1 2-17 1h-41l-1-2v-103h-53l-2-1v-12l1-21z" transform="translate(1810,740)"/>
<path fill="#FD4009" d="m0 0h58v105h103l2 1v33l-2 1h-161l-1-1v-138z" transform="translate(821,1080)"/>
<path fill="#FD4009" d="m0 0h56l1 1v138l-14 1h-44l-1-1 1-138z" transform="translate(796,912)"/>
<path d="m0 0h36l23 2 9 3 4 6v8l-4 6-8 4-15 2h-46l-1-1v-24z" transform="translate(671,774)"/>
<path d="m0 0h35l22 2 9 3 5 4 1 3v7l-6 7-11 4-9 1h-47l-2-2 1-27z" transform="translate(1078,774)"/>
<path d="m0 0h50l14 1 7 2 3 3v9l-4 5-5 2-6 1h-59l-1-1v-20z" transform="translate(1260,1162)"/>
<path d="m0 0 52 1 13 2 4 3 1 8-3 5-7 3-4 1-18 1h-38l-1-1v-20z" transform="translate(1260,1114)"/>
</svg>